# xmcd
#
# Track frame offsets:
#	150
#	19512
#	39362
#	58540
#	80004
#	99105
#	110940
#	125122
#	144607
#	163852
#	183680
#	202867
#	224337
#	243425
#	255295
#	269482
#
# Disc length: 3853 seconds
#
# Revision: 1
# Processed by: cddbd v1.5.1PL2 Copyright (c) Steve Scherf et al.
# Submitted via: audiograbber 1.83.01
#
DISCID=e60f0b10
DTITLE=Various Artist - Sc2240
DYEAR=1900
DGENRE=Country
TTITLE0=Gill, Vince - Let's Make Sure We Kiss Goodbye
TTITLE1=Chestnutt, Mark - I Don't Want To Miss A Thing
TTITLE2=White, Bryan - God Gave Me You
TTITLE3=Wills, Mark - Back At One
TTITLE4=Lone Star - Amazed
TTITLE5=Diamond Rio - Unbelievable
TTITLE6=Kershaw, Sammy - One Day Left To Live
TTITLE7=White, Bryan - You're Still Beautiful To Me
TTITLE8=Gill, Vince - Let's Make Sure We Kiss Goodbye (Vocals)
TTITLE9=Chestnutt, Mark - I Don't Want To Miss A Thing (Vocals)
TTITLE10=White, Bryan - God Gave Me You (Vocals)
TTITLE11=Wills, Mark - Back At One (Vocals)
TTITLE12=Lone Star - Amazed (Vocals)
TTITLE13=Diamond Rio - Unbelievable (Vocals)
TTITLE14=Kershaw, Sammy - One Day Left To Live (Vocals)
TTITLE15=White, Bryan - You're Still Beautiful To Me (Vocals)
EXTD=
EXTT0=
EXTT1=
EXTT2=
EXTT3=
EXTT4=
EXTT5=
EXTT6=
EXTT7=
EXTT8=
EXTT9=
EXTT10=
EXTT11=
EXTT12=
EXTT13=
EXTT14=
EXTT15=
PLAYORDER=
